<svg width="32" height="37" viewBox="0 0 32 37" fill="none" xmlns="http://www.w3.org/2000/svg">
<g clip-path="url(#clip0)">
<path d="M30.9958 4.76527L27.2899 1.01598C26.647 0.365465 25.7749 4.81055e-06 24.8656 0L12.5714 0C10.6779 0 9.14286 1.55299 9.14286 3.46875V6.9375H3.42857C1.535 6.9375 0 8.49049 0 10.4062V33.5312C0 35.447 1.535 37 3.42857 37H19.4286C21.3221 37 22.8571 35.447 22.8571 33.5312V30.0625H28.5714C30.465 30.0625 32 28.5095 32 26.5938V7.21804C32 6.29807 31.6388 5.41578 30.9958 4.76527ZM19 33.5312H3.85714C3.74348 33.5312 3.63447 33.4856 3.5541 33.4043C3.47372 33.3229 3.42857 33.2127 3.42857 33.0977V10.8398C3.42857 10.7248 3.47372 10.6146 3.5541 10.5332C3.63447 10.4519 3.74348 10.4062 3.85714 10.4062H9.14286V26.5938C9.14286 28.5095 10.6779 30.0625 12.5714 30.0625H19.4286V33.0977C19.4286 33.2127 19.3834 33.3229 19.303 33.4043C19.2227 33.4856 19.1137 33.5312 19 33.5312ZM28.1429 26.5938H13C12.8863 26.5938 12.7773 26.5481 12.697 26.4668C12.6166 26.3854 12.5714 26.2752 12.5714 26.1602V3.90234C12.5714 3.78735 12.6166 3.67706 12.697 3.59575C12.7773 3.51443 12.8863 3.46875 13 3.46875H20.5714V9.82812C20.5714 10.786 21.3389 11.5625 22.2857 11.5625H28.5714V26.1602C28.5714 26.2752 28.5263 26.3854 28.4459 26.4668C28.3655 26.5481 28.2565 26.5938 28.1429 26.5938V26.5938ZM28.5714 8.09375H24V3.46875H24.688C24.8016 3.46875 24.9106 3.51442 24.9911 3.59572L28.4459 7.09106C28.4857 7.13133 28.5173 7.17914 28.5388 7.23175C28.5604 7.28436 28.5714 7.34074 28.5714 7.39769V8.09375Z" fill="#E5E5E5"/>
</g>
<defs>
<clipPath id="clip0">
<rect width="32" height="37" fill="white"/>
</clipPath>
</defs>
</svg>
