<svg width="32" height="32" viewBox="0 0 32 32" fill="none" xmlns="http://www.w3.org/2000/svg">
<path d="M27.5406 0.785625L27.7906 5.95875C26.3386 4.24577 24.5305 2.86998 22.4923 1.92723C20.4542 0.984469 18.235 0.497416 15.9894 0.5C8.42063 0.5 2.11938 5.9325 0.768125 13.1138C0.748136 13.222 0.752199 13.3332 0.780027 13.4397C0.807854 13.5461 0.858764 13.6452 0.929146 13.7297C0.999528 13.8143 1.08766 13.8824 1.18728 13.9291C1.28691 13.9758 1.39559 14 1.50563 14H4.57125C4.74025 13.9998 4.90424 13.9426 5.03662 13.8375C5.16901 13.7325 5.26204 13.5858 5.30062 13.4213C5.80058 11.3464 6.89365 9.46183 8.44647 7.99762C9.99929 6.53341 11.9447 5.55282 14.0454 5.1755C16.146 4.79818 18.3111 5.04043 20.2764 5.87271C22.2417 6.70499 23.9223 8.0913 25.1131 9.8625L18.7719 9.55875C18.6704 9.55393 18.5691 9.56976 18.4739 9.60528C18.3788 9.64081 18.2918 9.69529 18.2184 9.76542C18.1449 9.83555 18.0864 9.91987 18.0465 10.0133C18.0066 10.1067 17.9861 10.2072 17.9862 10.3088V13.2719C17.9862 13.4708 18.0653 13.6616 18.2059 13.8022C18.3466 13.9429 18.5373 14.0219 18.7362 14.0219H31.25C31.4489 14.0219 31.6397 13.9429 31.7803 13.8022C31.921 13.6616 32 13.4708 32 13.2719V0.75C32 0.551088 31.921 0.360322 31.7803 0.21967C31.6397 0.0790176 31.4489 0 31.25 0L28.2894 0C28.1879 5.45735e-05 28.0875 0.0206935 27.9943 0.0606678C27.901 0.100642 27.8169 0.159121 27.7469 0.232564C27.6769 0.306008 27.6225 0.39289 27.587 0.487953C27.5516 0.583016 27.5358 0.684282 27.5406 0.785625V0.785625ZM15.9894 27C14.186 27.0015 12.41 26.5587 10.8184 25.7106C9.22687 24.8625 7.86882 23.6353 6.86438 22.1375L13.2269 22.4419C13.3283 22.4467 13.4297 22.4309 13.5248 22.3953C13.62 22.3598 13.7069 22.3053 13.7804 22.2352C13.8538 22.1651 13.9123 22.0808 13.9522 21.9874C13.9921 21.894 14.0126 21.7934 14.0125 21.6919V18.7294C14.0125 18.5305 13.9335 18.3397 13.7928 18.199C13.6522 18.0584 13.4614 17.9794 13.2625 17.9794H0.75C0.551088 17.9794 0.360322 18.0584 0.21967 18.199C0.0790176 18.3397 0 18.5305 0 18.7294L0 31.25C0 31.4489 0.0790176 31.6397 0.21967 31.7803C0.360322 31.921 0.551088 32 0.75 32H3.70937C3.8111 32.0001 3.91179 31.9796 4.00532 31.9395C4.09885 31.8995 4.18326 31.8409 4.25342 31.7672C4.32357 31.6936 4.37801 31.6064 4.41342 31.511C4.44883 31.4157 4.46446 31.3141 4.45937 31.2125L4.2 26.0519C5.65181 27.7613 7.45844 29.1342 9.49434 30.075C11.5302 31.0159 13.7466 31.5021 15.9894 31.5C23.5588 31.5 29.86 26.0675 31.2113 18.8862C31.2312 18.778 31.2272 18.6668 31.1993 18.5603C31.1715 18.4539 31.1206 18.3548 31.0502 18.2703C30.9798 18.1857 30.8917 18.1176 30.7921 18.0709C30.6925 18.0242 30.5838 18 30.4737 18H27.4081C27.2391 18.0002 27.0751 18.0574 26.9428 18.1625C26.8104 18.2675 26.7173 18.4142 26.6787 18.5788C26.1015 20.9789 24.7331 23.1149 22.794 24.6426C20.8549 26.1702 18.458 27.0006 15.9894 27V27Z" fill="#316ec9"/>
</svg>
